<?xml version="1.0" encoding="UTF-8"?>
<svg id="Layer_1" data-name="Layer 1" xmlns="http://www.w3.org/2000/svg" viewBox="0 0 1000 1000">
  <defs>
    <style>
      .cls-1 {
        fill: #3eb94e;
      }
    </style>
  </defs>
  <path class="cls-1" d="m258.8,954.55L603.29,45.13S162.45,180.88,162.45,561.87c0,242.3,96.34,392.68,96.34,392.68Z"/>
  <path class="cls-1" d="m836.58,495.67c-1.16-23.51-17.86-38.99-41.43-39.13-8.34-.05-16.69.39-25.04.3-15.89-.18-27-8.24-33.34-22.28-6.4-14.17-4.56-27.77,6.04-39.55,5.58-6.2,11.76-11.85,17.4-18,17.01-18.55,16.8-42.86-.87-60.62-11.96-12.03-24.26-23.75-36.81-35.16-18.32-16.66-43.12-16.15-60.95.96-5.82,5.58-11.14,11.68-16.93,17.29-11.76,11.37-25.55,14.49-40.68,8.16-7.05-2.95-12.56-7.08-16.49-12.33l-36.48,105.14c61.46,15.57,99.16,71.48,98.75,126.11,2.75,64.46-47.59,132.87-130.07,134.98-19.73.51-38.52-3.45-55.47-10.92l-34.46,99.32c.33.1.65.21.98.32,14.83,5.01,24.01,18.89,24.58,35.42.27,7.78.25,15.58.51,23.36.79,23.25,17.33,40.32,40.49,41.64,17.8,1.01,35.62.79,53.35-.92,24.85-2.39,39.98-19.18,40.48-44.45.16-8.06-.23-16.13-.3-24.2-.14-15.92,7.5-27.41,21.56-33.75,13.88-6.26,27.82-5.19,39.92,5.04,6.36,5.38,12.12,11.47,18.25,17.13,18.51,17.06,43.59,17.14,61.57-.35,12.36-12.02,24.35-24.46,35.96-37.2,16.39-17.98,15.93-41.81-.82-59.36-5.76-6.03-12.15-11.44-18.09-17.3-11.56-11.41-14.15-25.26-8.52-39.93,5.78-15.05,17.37-23.43,33.91-24,7.51-.26,15.02-.26,22.53-.5,24.83-.79,41.26-17.04,41.51-41.82.18-17.8-.14-35.62-1.02-53.4Z"/>
</svg>